<?xml version="1.0" encoding="UTF-8" standalone="no"?>
<!-- Created with Inkscape (http://www.inkscape.org/) -->

<svg
   xmlns:dc="http://purl.org/dc/elements/1.1/"
   xmlns:cc="http://creativecommons.org/ns#"
   xmlns:rdf="http://www.w3.org/1999/02/22-rdf-syntax-ns#"
   xmlns:svg="http://www.w3.org/2000/svg"
   xmlns="http://www.w3.org/2000/svg"
   xmlns:sodipodi="http://sodipodi.sourceforge.net/DTD/sodipodi-0.dtd"
   xmlns:inkscape="http://www.inkscape.org/namespaces/inkscape"
   width="400"
   height="300"
   viewBox="0 0 105.83333 79.375002"
   version="1.1"
   id="svg8"
   inkscape:export-filename="/home/rattones/Imagens/pessoal/twitch-logo.png"
   inkscape:export-xdpi="89.919998"
   inkscape:export-ydpi="89.919998"
   inkscape:version="0.92.4 (fd57863, 2020-04-02)"
   sodipodi:docname="logo.svg">
  <defs
     id="defs2" />
  <sodipodi:namedview
     id="base"
     pagecolor="#ffffff"
     bordercolor="#666666"
     borderopacity="1.0"
     inkscape:pageopacity="0.0"
     inkscape:pageshadow="2"
     inkscape:zoom="0.98994949"
     inkscape:cx="66.756031"
     inkscape:cy="114.56926"
     inkscape:document-units="px"
     inkscape:current-layer="layer1"
     showgrid="false"
     units="px"
     inkscape:window-width="1366"
     inkscape:window-height="717"
     inkscape:window-x="0"
     inkscape:window-y="25"
     inkscape:window-maximized="1" />
  <metadata
     id="metadata5">
    <rdf:RDF>
      <cc:Work
         rdf:about="">
        <dc:format>image/svg+xml</dc:format>
        <dc:type
           rdf:resource="http://purl.org/dc/dcmitype/StillImage" />
        <dc:title></dc:title>
      </cc:Work>
    </rdf:RDF>
  </metadata>
  <g
     inkscape:label="Camada 1"
     inkscape:groupmode="layer"
     id="layer1"
     transform="translate(0,-217.62499)">
    <g
       transform="matrix(0.83998095,0,0,-0.83998095,-106.34895,280.2119)"
       inkscape:label="logo"
       id="g3721"
       style="fill:#000000"
       inkscape:export-xdpi="120"
       inkscape:export-ydpi="120">
      <g
         id="g3723"
         style="fill:#000000">
        <path
           inkscape:connector-curvature="0"
           id="path3725"
           style="fill:#000000;fill-opacity:1;fill-rule:evenodd;stroke:none"
           d="m 234.734,35.323 c 5.043,-1.129 8.387,9.735 5.77,11.863 -3.82,3.102 -9.344,-11.433 -9.344,-11.433 0.192,3.961 8.301,18.504 10.789,13.351 3.383,-7.003 -2.64,-15.804 -7.215,-13.781 z" />
        <path
           inkscape:connector-curvature="0"
           id="path3727"
           style="fill:#000000;fill-opacity:1;fill-rule:evenodd;stroke:none"
           d="m 212.672,26.319 c -1.785,-4.847 -12.727,-1.777 -13.098,1.574 -0.539,4.895 14.672,1.661 14.672,1.661 -3.434,1.984 -20.051,3.047 -17.066,-1.836 4.05,-6.637 14.715,-6.34 15.492,-1.399 z" />
        <path
           inkscape:connector-curvature="0"
           id="path3729"
           style="fill:#000000;fill-opacity:1;fill-rule:evenodd;stroke:none"
           d="m 240.926,30.018 -3.106,-1.39 0.114,-0.258 3.109,1.387 z" />
        <path
           inkscape:connector-curvature="0"
           id="path3731"
           style="fill:#000000;fill-opacity:1;fill-rule:evenodd;stroke:none"
           d="m 244.582,35.554 -7.125,-6.164 0.184,-0.215 7.125,6.164 z" />
        <path
           inkscape:connector-curvature="0"
           id="path3733"
           style="fill:#000000;fill-opacity:1;fill-rule:evenodd;stroke:none"
           d="m 245.547,41.116 -8.719,-11.242 0.227,-0.176 8.715,11.246 z" />
        <path
           inkscape:connector-curvature="0"
           id="path3735"
           style="fill:#000000;fill-opacity:1;fill-rule:evenodd;stroke:none"
           d="m 231.035,23.245 -5.676,-4.75 0.184,-0.219 5.676,4.754 z" />
        <path
           inkscape:connector-curvature="0"
           id="path3737"
           style="fill:#000000;fill-opacity:1;fill-rule:evenodd;stroke:none"
           d="m 230.668,23.761 -13.98,-5.918 0.109,-0.262 13.98,5.918 z" />
        <path
           inkscape:connector-curvature="0"
           id="path3739"
           style="fill:#000000;fill-opacity:1;fill-rule:evenodd;stroke:none"
           d="m 230.484,24.515 -21.129,-5.36 0.067,-0.273 21.133,5.359 z" />
        <path
           inkscape:connector-curvature="0"
           id="path3741"
           style="fill:#000000;fill-opacity:1;fill-rule:evenodd;stroke:none"
           d="m 215.688,27.78 c 3.402,4.164 9.867,6.348 16.007,6.145 -6.488,1.133 -12.633,0.496 -16.007,-6.145 z" />
        <path
           inkscape:connector-curvature="0"
           id="path3743"
           style="fill:#000000;fill-opacity:1;fill-rule:nonzero;stroke:none"
           d="m 236.613,26.944 c 0,-1.027 -0.402,-1.859 -0.898,-1.859 -0.496,0 -0.895,0.832 -0.895,1.859 0,1.024 0.399,1.856 0.895,1.856 0.496,0 0.898,-0.832 0.898,-1.856 z" />
        <path
           inkscape:connector-curvature="0"
           id="path3745"
           style="fill:#000000;fill-opacity:1;fill-rule:evenodd;stroke:none"
           d="m 224.863,23.597 c 0,0 4.266,-2.934 6.621,-2.629 2.028,0.261 3.235,4.109 5.887,3.312 -2.359,0.176 -2.574,-3.086 -4.269,-3.844 -0.844,-0.375 -1.86,-0.418 -2.754,-0.199 -2.086,0.504 -5.485,3.36 -5.485,3.36 z" />
        <path
           inkscape:connector-curvature="0"
           id="path3747"
           style="fill:#000000;fill-opacity:1;fill-rule:evenodd;stroke:none"
           d="M 170.473,37.866 C 127.082,36.741 112.355,14.847 199.32,8.55 124.105,17.257 125.973,32.331 170.508,36.249" />
        <path
           inkscape:connector-curvature="0"
           id="path3749"
           style="fill:#000000;fill-opacity:1;fill-rule:evenodd;stroke:none"
           d="m 186.301,25.683 0.605,0.351" />
        <path
           inkscape:connector-curvature="0"
           id="path3751"
           style="fill:#000000;fill-opacity:1;fill-rule:evenodd;stroke:none"
           d="m 186.906,26.034 c -37.316,17.399 25.871,33.641 34.805,8.68 -3.422,10.179 -14.379,14.043 -25.246,14.086 -20.703,0.082 -42.063,-13.336 -10.496,-22.578" />
      </g>
    </g>
  </g>
</svg>
